<mxfile host="app.diagrams.net" agent="Mozilla/5.0 (Windows NT 10.0; Win64; x64) AppleWebKit/537.36 (KHTML, like Gecko) Chrome/131.0.0.0 Safari/537.36 Edg/131.0.0.0" version="26.1.1">
  <diagram name="Página-1" id="NIlyQy7GItakN4wGOn8R">
    <mxGraphModel dx="272" dy="465" grid="1" gridSize="10" guides="1" tooltips="1" connect="1" arrows="1" fold="1" page="0" pageScale="1" pageWidth="827" pageHeight="1169" math="0" shadow="0">
      <root>
        <mxCell id="0" />
        <mxCell id="1" parent="0" />
        <mxCell id="LtWBtY3rAHviaVNRuFDF-3" value="" style="edgeStyle=none;curved=1;rounded=0;orthogonalLoop=1;jettySize=auto;html=1;fontSize=12;startSize=8;endSize=8;" parent="1" source="LtWBtY3rAHviaVNRuFDF-1" target="LtWBtY3rAHviaVNRuFDF-2" edge="1">
          <mxGeometry relative="1" as="geometry" />
        </mxCell>
        <mxCell id="LtWBtY3rAHviaVNRuFDF-1" value="Inicio" style="ellipse;whiteSpace=wrap;html=1;" parent="1" vertex="1">
          <mxGeometry x="120" y="40" width="120" height="80" as="geometry" />
        </mxCell>
        <mxCell id="LtWBtY3rAHviaVNRuFDF-6" value="" style="edgeStyle=none;curved=1;rounded=0;orthogonalLoop=1;jettySize=auto;html=1;fontSize=12;startSize=8;endSize=8;" parent="1" source="LtWBtY3rAHviaVNRuFDF-2" target="LtWBtY3rAHviaVNRuFDF-5" edge="1">
          <mxGeometry relative="1" as="geometry" />
        </mxCell>
        <mxCell id="LtWBtY3rAHviaVNRuFDF-2" value="&quot;Saldo&quot; = 500&lt;div&gt;&quot;SaqueDiario&quot; = 20&lt;/div&gt;" style="shape=parallelogram;perimeter=parallelogramPerimeter;whiteSpace=wrap;html=1;fixedSize=1;" parent="1" vertex="1">
          <mxGeometry x="110" y="160" width="140" height="60" as="geometry" />
        </mxCell>
        <mxCell id="LtWBtY3rAHviaVNRuFDF-8" value="" style="edgeStyle=none;curved=1;rounded=0;orthogonalLoop=1;jettySize=auto;html=1;fontSize=12;startSize=8;endSize=8;" parent="1" source="LtWBtY3rAHviaVNRuFDF-5" target="LtWBtY3rAHviaVNRuFDF-7" edge="1">
          <mxGeometry relative="1" as="geometry" />
        </mxCell>
        <mxCell id="LtWBtY3rAHviaVNRuFDF-5" value="Saldo = Saldo - SaqueDiario" style="rounded=0;whiteSpace=wrap;html=1;" parent="1" vertex="1">
          <mxGeometry x="120" y="250" width="120" height="60" as="geometry" />
        </mxCell>
        <mxCell id="LtWBtY3rAHviaVNRuFDF-13" style="edgeStyle=none;curved=0;rounded=0;orthogonalLoop=1;jettySize=auto;html=1;fontSize=12;startSize=8;endSize=8;entryX=0;entryY=0.5;entryDx=0;entryDy=0;" parent="1" source="LtWBtY3rAHviaVNRuFDF-7" target="LtWBtY3rAHviaVNRuFDF-5" edge="1">
          <mxGeometry relative="1" as="geometry">
            <mxPoint x="10" y="270" as="targetPoint" />
            <Array as="points">
              <mxPoint x="80" y="390" />
              <mxPoint x="80" y="280" />
            </Array>
          </mxGeometry>
        </mxCell>
        <mxCell id="LtWBtY3rAHviaVNRuFDF-7" value="Saldo&amp;lt;=0?" style="rhombus;whiteSpace=wrap;html=1;" parent="1" vertex="1">
          <mxGeometry x="140" y="350" width="80" height="80" as="geometry" />
        </mxCell>
        <mxCell id="LtWBtY3rAHviaVNRuFDF-9" value="Fim" style="ellipse;whiteSpace=wrap;html=1;" parent="1" vertex="1">
          <mxGeometry x="420" y="361" width="120" height="80" as="geometry" />
        </mxCell>
        <mxCell id="LtWBtY3rAHviaVNRuFDF-11" value="Sim" style="text;html=1;align=center;verticalAlign=middle;resizable=0;points=[];autosize=1;strokeColor=none;fillColor=none;fontSize=16;" parent="1" vertex="1">
          <mxGeometry x="210" y="351" width="50" height="30" as="geometry" />
        </mxCell>
        <mxCell id="LtWBtY3rAHviaVNRuFDF-12" value="Não" style="text;html=1;align=center;verticalAlign=middle;resizable=0;points=[];autosize=1;strokeColor=none;fillColor=none;fontSize=16;" parent="1" vertex="1">
          <mxGeometry x="99" y="351" width="50" height="30" as="geometry" />
        </mxCell>
        <mxCell id="90P-FnsVH1yKXdUFaVqg-3" value="" style="edgeStyle=none;curved=1;rounded=0;orthogonalLoop=1;jettySize=auto;html=1;fontSize=12;startSize=8;endSize=8;" edge="1" parent="1" source="90P-FnsVH1yKXdUFaVqg-1" target="LtWBtY3rAHviaVNRuFDF-9">
          <mxGeometry relative="1" as="geometry" />
        </mxCell>
        <mxCell id="90P-FnsVH1yKXdUFaVqg-1" value="Sem saldo" style="shape=document;whiteSpace=wrap;html=1;boundedLbl=1;" vertex="1" parent="1">
          <mxGeometry x="280" y="361" width="120" height="80" as="geometry" />
        </mxCell>
        <mxCell id="90P-FnsVH1yKXdUFaVqg-2" style="edgeStyle=none;curved=1;rounded=0;orthogonalLoop=1;jettySize=auto;html=1;exitX=1;exitY=0.5;exitDx=0;exitDy=0;entryX=0;entryY=0.396;entryDx=0;entryDy=0;entryPerimeter=0;fontSize=12;startSize=8;endSize=8;" edge="1" parent="1" source="LtWBtY3rAHviaVNRuFDF-7" target="90P-FnsVH1yKXdUFaVqg-1">
          <mxGeometry relative="1" as="geometry" />
        </mxCell>
      </root>
    </mxGraphModel>
  </diagram>
</mxfile>
